<svg width="89" height="24" viewBox="0 0 89 24" fill="none" xmlns="http://www.w3.org/2000/svg">
<g id="Group">
<path id="Vector" d="M77.5371 7.30139C40.1068 25.1151 16.8771 10.2109 2.007 1.15838C1.08685 0.587865 -0.477092 1.29176 0.87984 2.85037C5.8338 8.85715 22.069 23.3352 43.2606 23.3352C64.4668 23.3352 77.0825 11.7642 78.6607 9.74565C80.2282 7.74422 79.121 6.64018 77.5367 7.30139H77.5371ZM88.0493 1.49593C87.0442 0.187012 81.9373 -0.0569858 78.7233 0.337823C75.5044 0.72125 70.6728 2.68853 71.0928 3.86976C71.3084 4.31223 71.7484 4.11376 73.9596 3.91493C76.177 3.69369 82.3886 2.90977 83.683 4.60175C84.9833 6.30548 81.7018 14.4215 81.1025 15.7304C80.5234 17.0393 81.3237 17.3768 82.4114 16.5051C83.4841 15.6336 85.4262 13.3768 86.7294 10.1831C88.0237 6.97203 88.813 2.49255 88.049 1.49593H88.0493Z" fill="#FF9900"/>
<path id="Vector_2" d="M77.5371 7.30139C40.1068 25.1151 16.8771 10.2109 2.007 1.15838C1.08685 0.587865 -0.477092 1.29176 0.87984 2.85037C5.8338 8.85715 22.069 23.3352 43.2606 23.3352C64.4668 23.3352 77.0825 11.7642 78.6607 9.74565C80.2282 7.74422 79.121 6.64018 77.5367 7.30139H77.5371ZM88.0493 1.49593C87.0442 0.187012 81.9373 -0.0569858 78.7233 0.337823C75.5044 0.72125 70.6728 2.68853 71.0928 3.86976C71.3084 4.31223 71.7484 4.11376 73.9596 3.91493C76.177 3.69369 82.3886 2.90977 83.683 4.60175C84.9833 6.30548 81.7018 14.4215 81.1025 15.7304C80.5234 17.0393 81.3237 17.3768 82.4114 16.5051C83.4841 15.6336 85.4262 13.3768 86.7294 10.1831C88.0237 6.97203 88.813 2.49255 88.049 1.49593H88.0493Z" fill="#FF9900"/>
</g>
</svg>
