<svg width="56" height="70" viewBox="0 0 56 70" fill="none" xmlns="http://www.w3.org/2000/svg">
<g id="UPI">
<path id="Polygon 2" d="M37.9482 6.75479C38.1091 6.19957 38.8659 6.12632 39.1303 6.64036L53.3521 34.2864C53.4844 34.5436 53.4274 34.8576 53.2132 35.052L23.0419 62.4322C22.8903 62.5698 22.7627 62.6041 22.6636 62.6097C22.5474 62.6163 22.4075 62.5844 22.274 62.5011C22.1405 62.4177 22.0504 62.3061 22.0053 62.1987C21.9668 62.1073 21.9416 61.9776 21.9986 61.781L37.9482 6.75479Z" fill="white" stroke="#133E5D" stroke-width="3.83444"/>
<path id="Polygon 1" d="M21.2592 6.75476C21.4201 6.19954 22.1769 6.12629 22.4413 6.64033L36.6631 34.2864C36.7954 34.5436 36.7384 34.8576 36.5242 35.052L6.35286 62.4322C6.20126 62.5697 6.07369 62.604 5.97465 62.6096C5.85841 62.6162 5.71849 62.5844 5.585 62.501C5.4515 62.4177 5.36141 62.306 5.31627 62.1987C5.2778 62.1073 5.25258 61.9776 5.30957 61.781L21.2592 6.75476Z" fill="#3877FF" stroke="#133E5D" stroke-width="3.83444"/>
</g>
</svg>
